<?xml version="1.0" encoding="utf-8"?>
<!-- Generator: Adobe Illustrator 19.0.1, SVG Export Plug-In . SVG Version: 6.00 Build 0)  -->
<svg version="1.1" id="Capa_1" xmlns="http://www.w3.org/2000/svg" xmlns:xlink="http://www.w3.org/1999/xlink" x="0px" y="0px"
	 viewBox="-235 238.6 487.1 85.4" style="enable-background:new -235 238.6 487.1 85.4;" xml:space="preserve">
<style type="text/css">
	.st0{fill:#C7CEF9;}
	.st1{font-family:'Salina';}
	.st2{font-size:71px;}
	.st3{fill:#6595EA;}
</style>
<g>
	<g>
		<path class="st0" d="M190.7,286.4c-0.5,0.3-1.2,1.5-2.1,3.6c-0.9,2-1.9,4.4-2.8,7c-0.4,1.1-0.8,2.3-1.1,3.6
			c-0.3,1.3-0.6,2.5-0.8,3.6c-0.2,1.1-0.5,1.7-0.9,1.9c-0.4,0.2-1.6,0.3-3.5,0.3c-0.5,0-0.9,0-1,0c-1.1,0-1.8-0.1-2-0.2
			s-0.5-0.6-0.8-1.5l-2-5.7l-0.4-1l-1-2.6l-1.4,3.9c-1.1,3-1.9,5-2.4,5.9s-1,1.3-1.5,1.3c-1,0-1.7,0-2.1,0c-2,0-3.3-0.1-3.7-0.3
			s-0.8-0.9-1.2-2l-0.6-1.9l-0.6-1.6l-1.1-3.4l-2.1-6.5l-0.1-0.3c-0.5-1.7-0.8-2.7-0.9-3c-0.3-0.6-1.2-1.5-2.7-2.6l-0.4-0.3
			c-0.1,0-0.2-0.2-0.3-0.4c-0.1-0.3-0.2-0.8-0.2-1.3c-0.1-1.2,0.3-2,1.1-2.3c0.8-0.3,2.9-0.5,6.2-0.5c2.1,0,3.5,0.1,4.2,0.3
			c0.7,0.2,1.2,0.5,1.4,1c0.3,0.5,0.4,0.9,0.4,1.3c0,0.6-0.9,2-2.6,4.1c-0.1,0.1-0.1,0.3,0,0.6c0,0.2,0.3,1.1,0.8,2.6l1,3l0.1,0.2
			c0.3,0.8,0.5,1.4,0.7,1.8c0.1,0.3,0.4,1,1,2.1l0.9-2.9l0.1-0.3c0.6-1.7,1.1-2.9,1.3-3.5c0.6-1.6,0.9-2.6,0.9-3.2s-0.3-1.3-0.8-2
			c-0.6-0.7-1.1-1.3-1.5-1.8c-0.1-0.2-0.2-0.5-0.2-0.8s0.1-0.7,0.4-1.2s1-0.8,2-1c1-0.2,3-0.3,6-0.3c1.5,0,2.5,0,3,0.1
			c0.5,0.1,0.9,0.3,1.2,0.6c0.6,0.6,0.9,1.2,0.9,1.9c0,1-0.6,1.9-1.9,2.9c-0.5,0.3-0.7,0.9-0.7,1.6c0,0.6,0.1,1.4,0.4,2.2
			c0.3,0.9,0.8,2,1.4,3.6l1.7,3.7l0.8-2.3c0.7-1.8,1.4-3.7,2.1-5.6c0.2-0.7,0.3-1.3,0.3-1.7c0-0.6-0.2-1.1-0.6-1.6
			c-0.7-0.8-1.4-1.5-2-2.1c-0.2-0.2-0.3-0.5-0.3-0.8c0-0.6,0.4-1.1,1.1-1.7c0.3-0.3,1.1-0.5,2.2-0.6s2.6-0.2,4.4-0.2
			c1.9,0,3.3,0.3,4.1,0.9c0.8,0.6,1.2,1.3,1.1,2.2c-0.1,0.7-0.3,1.2-0.6,1.6C192.5,285,191.8,285.6,190.7,286.4z"/>
		<path class="st0" d="M207.7,307.1c-3.2,0-5.9-1-8.1-2.9c-2.2-1.9-3.6-4.6-4.3-8.1c-0.1-0.5-0.2-1-0.2-1.6c0-0.6-0.1-1.1-0.1-1.6
			c0-2.6,0.5-4.9,1.6-6.9s2.5-3.6,4.3-4.8s3.7-1.8,5.8-1.8c2.7,0,5.1,0.6,7.1,1.7s3.4,2.6,4.1,4.4c0.7,1.8,1.1,3.4,1.1,4.8
			c0,1.7-0.6,3-1.7,3.9s-2.6,1.4-4.5,1.4h-5.7H206l-3.4-0.1c0,1.4,0.5,2.5,1.4,3.3c0.9,0.8,2.2,1.2,3.8,1.2c0.6,0,1.1,0,1.5-0.1
			c0.5-0.1,1-0.2,1.5-0.5c0.6-0.3,1.4-0.7,2.7-1.5c0.4-0.2,0.9-0.4,1.4-0.5c2.2,0,3.2,1.1,3.2,3.2c0,1.6-1,3.1-2.9,4.4
			C213.3,306.4,210.8,307.1,207.7,307.1z M207.7,285.8c-1.7,0-3,0.5-4.1,1.4s-1.6,2.1-1.6,3.4h3.3h1.2l2.1-0.1c0.6,0,1.3-0.1,2-0.4
			c0.7-0.3,1.1-0.8,1.1-1.7c0-0.4-0.1-0.7-0.3-1.1C210.7,286.3,209.4,285.8,207.7,285.8z"/>
		<path class="st0" d="M247,302.5c-0.8,1-1.7,1.9-2.7,2.5c-0.9,0.7-1.8,1.1-2.7,1.3c-0.9,0.2-1.6,0.3-2.4,0.3c-1.6,0-3-0.4-4.1-1.3
			s-1.7-1.9-1.7-3.1c0-0.9,0.3-1.7,0.8-2.4c0.5-0.7,1.1-1,1.7-1l2.9,0.1c1.1,0,2.1-0.6,3.1-1.8c0.9-1.2,1.4-2.7,1.4-4.5
			c0-0.4-0.1-0.7-0.1-1c0-0.9-0.1-1.6-0.4-2.2c-0.3-0.6-0.6-1.1-1.1-1.7c-1.1-1.2-2.4-1.8-3.9-1.8s-2.9,0.7-4.3,2
			c-0.6,0.7-1.1,1.7-1.3,3c-0.3,1.3-0.4,3.4-0.4,6.3l0.1,2.6l0.1,1.5c0,2.4-0.4,3.8-1.1,4.2c-0.8,0.4-3,0.6-6.7,0.6
			c-0.8-0.1-1.5-0.4-1.9-1s-0.6-1.2-0.4-2c0.2-0.6,0.4-1.2,0.8-1.7c0.3-0.5,1-1.2,2-2.2c0.2-0.2,0.3-0.6,0.3-1.3
			c0-0.6,0-1.8-0.1-3.5c0-1.7-0.1-3.3-0.1-4.6l-0.1-0.3l0.1-10.2v-1v-3.7c-0.1,0-0.4,0.1-0.7,0.1c-0.2,0-0.5-0.1-1-0.2
			s-1-0.5-1.4-1.1c-0.4-0.6-0.7-1.2-0.7-1.8c0-0.3,0.1-0.5,0.2-0.8c1.2-1.6,2.4-2.8,3.4-3.6c1.1-0.8,2.1-1.4,3.2-1.7
			c0.5-0.1,0.8-0.1,1.1-0.1c0.8,0,1.4,0.2,2,0.6s0.8,0.8,0.8,1.4v4.2v9l0.1,1.2v1.5l1.3-1.3c2.1-1.8,4.3-2.8,6.5-2.8
			c2,0,3.9,0.8,5.7,2.3c3,2.5,4.5,6.6,4.5,12.3c0,1.7-0.3,3.2-0.8,4.6C248.8,299.9,248,301.2,247,302.5z"/>
	</g>
	<text id="XMLID_1_" transform="matrix(1 0 0 1 -224 306.5)" class="st1 st2">The Top Ten</text>
	<text id="XMLID_2_" transform="matrix(1 0 0 1 -222 302.1)" class="st3 st1 st2">The Top Ten</text>
</g>
</svg>
